<svg id="Capa_1" data-name="Capa 1" xmlns="http://www.w3.org/2000/svg" viewBox="0 0 512 512"><defs><style>.cls-1{fill:none;}</style></defs><title>shield-3</title><path class="cls-1" d="M253,281.63,152.43,393.87c39.91,39.5,85.38,64.75,103.57,74a444,444,0,0,0,84.79-56.65C400,360.38,430.06,304.45,430.06,245V219.6L318.38,343.85Z"/><path class="cls-1" d="M223.77,253.8l27.59-29,64.77,61.65L430.06,159.73V124.29a20.06,20.06,0,0,0-16.62-19.71C357.72,94.59,307.6,65,282.68,48.19a47.6,47.6,0,0,0-53.36,0c-24.91,16.77-75,46.4-130.76,56.39a20.06,20.06,0,0,0-16.62,19.71V245c0,46.18,18.54,86,43.78,118.76L224,254Z"/><path d="M430.06,219.6V245c0,59.45-30,115.38-89.27,166.22A444,444,0,0,1,256,467.87c-18.19-9.25-63.66-34.5-103.57-74l-26.76,29.86q9.64,9.45,20.3,18.56c50.15,42.83,99.81,65.16,101.9,66.09L256,512l8.13-3.62c2.09-.93,51.75-23.26,101.9-66.09,29.82-25.46,53.67-53,70.88-81.75,22-36.79,33.16-75.66,33.16-115.54V175.08Z"/><path d="M265.71,239.17l-27.58,29,.24.24-125,139.83a299.23,299.23,0,0,0,26.71,30.11L267.37,296l65.36,62.21L470.07,204V144.15L330.48,300.82Z"/><path d="M261.25,141l-27.59,29,.25.23L87.94,333a300.59,300.59,0,0,0,26.71,30.12L262.9,197.85l65.36,62.22L440,135.82V76L326,202.69Z"/><path d="M420.5,65.19C372,56.5,327.33,30,305,15a87.6,87.6,0,0,0-98,0C184.67,30,140,56.5,91.5,65.19a60,60,0,0,0-49.57,59.1V245c0,39.88,11.15,78.75,33.16,115.54,6.8,11.38,9.43,15.8,18.27,26.74L120.48,357c-25.24-32.79-38.54-65.82-38.54-112V124.29a20.06,20.06,0,0,1,16.62-19.71c55.72-10,105.85-39.62,130.76-56.39a47.6,47.6,0,0,1,53.36,0c24.92,16.77,75,46.4,130.76,56.39a20.06,20.06,0,0,1,16.62,19.71l-4.74,28.1,39.42-43.85C461.17,83.18,446.41,69.84,420.5,65.19Z"/></svg>